<?xml version="1.0" standalone="no"?>
<!DOCTYPE svg PUBLIC "-//W3C//DTD SVG 20010904//EN"
 "http://www.w3.org/TR/2001/REC-SVG-20010904/DTD/svg10.dtd">
<svg version="1.0" xmlns="http://www.w3.org/2000/svg"
 width="180.000000pt" height="180.000000pt" viewBox="0 0 180.000000 180.000000"
 preserveAspectRatio="xMidYMid meet">
<metadata>
Created by potrace 1.14, written by Peter Selinger 2001-2017
</metadata>
<g transform="translate(0.000000,180.000000) scale(0.100000,-0.100000)"
fill="#000000" stroke="none">
<path d="M730 1785 c-184 -40 -332 -119 -455 -241 -126 -124 -191 -233 -241
-400 -34 -117 -41 -297 -14 -424 108 -524 658 -839 1165 -668 319 109 558 396
603 727 12 91 6 224 -14 320 -10 49 -58 176 -82 221 -93 169 -227 302 -389
383 -53 28 -175 71 -228 82 -66 14 -280 13 -345 0z"/>
</g>
</svg>
